<svg width="42" height="42" viewBox="0 0 42 42" fill="none" xmlns="http://www.w3.org/2000/svg">
<path d="M19.9988 30.8567L19.4274 25.1427L21.1416 30.8567V25.1427" stroke="#F8B936" stroke-width="1.1428" stroke-linecap="round"/>
<path d="M24.5705 25.7131L23.4279 24.5705L25.1418 25.1418L24.5705 23.4279" stroke="#F8B936" stroke-width="1.1428" stroke-linecap="round"/>
<path d="M25.7122 21.1421H30.8548V19.9993L25.1408 19.4279" stroke="#F8B936" stroke-width="1.1428" stroke-linecap="round"/>
<path d="M20.5705 10.2872L19.4279 14.8576L21.7131 15.4289L20.5705 10.2872Z" fill="#F8B936" stroke="#F8B936" stroke-width="1.1428" stroke-linecap="round"/>
<path d="M14.8563 21.7135L9.14226 21.1421L14.8563 19.4279H10.2851" stroke="#F8B936" stroke-width="1.1428" stroke-linecap="round"/>
<path d="M16.0002 25.7121V22.8556H17.7141" stroke="#F8B936" stroke-width="1.1428" stroke-linecap="round"/>
<path d="M20.5705 40.5694V20.5704M20.5705 0.571411V20.5704M20.5705 20.5704H40.5695M20.5705 20.5704H0.571457M20.5705 20.5704L27.9987 13.1422M20.5705 20.5704L13.1423 28.57M20.5705 20.5704L27.9987 28.57M20.5705 20.5704L16.8564 16.8563L13.1423 13.1422M13.1423 13.1422L15.9993 17.7134M13.1423 13.1422C12.5709 12.5708 17.7135 15.9992 17.7135 15.9992" stroke="#F8B936" stroke-width="1.1428" stroke-linecap="round"/>
<path d="M18.8561 15.9992L20.5703 0.571411L22.2845 16.5706" stroke="#F8B936" stroke-width="1.1428" stroke-linecap="round"/>
<path d="M23.4269 16.0002L27.9973 13.1437L25.1408 17.7141" stroke="#F8B936" stroke-width="1.1428" stroke-linecap="round"/>
<path d="M25.7121 18.8566L40.5685 20.5708L25.7121 22.285" stroke="#F8B936" stroke-width="1.1428" stroke-linecap="round"/>
<path d="M23.4279 25.1418L27.9983 28.5696L25.1418 23.4279" stroke="#F8B936" stroke-width="1.1428" stroke-linecap="round"/>
<path d="M18.8561 25.714L20.5703 40.5704L22.2845 25.714" stroke="#F8B936" stroke-width="1.1428" stroke-linecap="round"/>
<path d="M13.1437 28.5686L16.0002 23.4269" stroke="#F8B936" stroke-width="1.1428" stroke-linecap="round"/>
<path d="M13.1437 28.5685L17.7141 25.1407" stroke="#F8B936" stroke-width="1.1428" stroke-linecap="round"/>
<path d="M0.571457 20.5704L15.4279 22.2846" stroke="#F8B936" stroke-width="1.1428" stroke-linecap="round"/>
<path d="M0.571457 20.5708L15.4279 18.8566" stroke="#F8B936" stroke-width="1.1428" stroke-linecap="round"/>
<circle cx="20.5716" cy="20.5715" r="5.1426" fill="#F8B936" stroke="#F8B936" stroke-width="1.1428"/>
</svg>
